<svg baseprofile="tiny" fill="#ececec" height="857" stroke="black" stroke-linecap="round" stroke-linejoin="round" stroke-width=".2" version="1.2" viewbox="0 0 2000 857" width="2000" xmlns="http://www.w3.org/2000/svg">
    <path d="M 1127.6 615.7 l 1.9 5.1 1.1 1.2 1.6 3.7 6.1 7 2.3 0.7-0.1 2.3 1.5 4.1 4.3 1 3.4 2.9-8.1 4.7-5.2 4.8-2 4.3-1.8 2.4-3 0.5-1.2 3.1-0.6 2-3.6 1.4-4.5-0.3-2.5-1.8-2.3-0.7-2.8 1.4-1.5 3.1-2.7 1.9-2.8 2.9-4 0.7-1.1-2.3 0.6-3.9-3-6.1-1.4-1 0.6-18.7 5.5-0.2 0.8-22.9 4.2-0.2 8.7-2.3 2 2.7 3.7-2.5 1.7 0 3.2-1.5 1 0.5z" id="BW" name="Botswana">
    </path>
</svg>