<svg baseprofile="tiny" fill="#ececec" height="857" stroke="black" stroke-linecap="round" stroke-linejoin="round" stroke-width=".2" version="1.2" viewbox="0 0 2000 857" width="2000" xmlns="http://www.w3.org/2000/svg">
    <path d="M 1207.3 408.5 l 3.9 0.1 5 2.6 1.5 2.2 2.6 2.1 2.5 3.7 2 2.1-1.9 2.8-1.8 3 0.5 1.8 0.2 2 3.2 0.1 1.3-0.5 1.3 1.2-1.2 2.2 2.2 3.6 2.2 3.1 2.2 2.3 18.7 7.6 4.8-0.1-15.6 19.3-7.3 0.3-5 4.5-3.6 0.1-1.5 2.1-3.9 0-2.3-2.2-5.2 2.7-1.6 2.7-3.8-0.6-1.3-0.7-1.3 0.2-1.8-0.1-7.2-5.4-4 0-1.9-2.1-0.1-3.6-2.9-1.1-3.5-7-2.6-1.5-1-2.6-3-3.1-3.5-0.5 1.9-3.6 3-0.2 0.8-1.9-0.2-5 0-0.8 1.5-6.7 2.6-1.8 0.5-2.6 2.3-5 3.3-3.1 2-6.4 0.7-5.5 6.6 1.4 1.5-4.8 3.6 2.9 3.2-1.5 1.4 1.3z" id="ET" name="Ethiopia">
    </path>
</svg>