<svg baseprofile="tiny" fill="#ececec" height="857" stroke="black" stroke-linecap="round" stroke-linejoin="round" stroke-width=".2" version="1.2" viewbox="0 0 2000 857" width="2000" xmlns="http://www.w3.org/2000/svg">
    <path class="Faeroe Islands" d="M 955.6 112 L 956 112.2 956.3 112.2 956.4 112.4 956.4 112.8 956.6 113.1 956.5 113.3 955.9 112.9 955.7 112.5 955.5 112.3 955.3 112 955.6 112 Z">
    </path>
    <path class="Faeroe Islands" d="M 955.9 110.4 L 956.7 110.6 956.9 110.8 956.8 111.2 956.7 111.3 956.3 110.8 955.8 110.7 955.6 110.3 955.9 110.4 Z">
    </path>
    <path class="Faeroe Islands" d="M 954.62 109.04 L 954.7 109.2 955 109.2 955 109.5 954.6 109.5 954.4 109.7 953.8 109.5 953.6 109.4 953.4 109.1 953.9 109 954 108.9 954.5571428571428 108.99285714285715 954.3 108.8 954.5 108 955 108.1 955.3 108.6 955.3 108.7 955.9 108.9 956.2 109.4 956.5 109.6 956.4 110.2 955.9 109.8 955.7 109.6 955.5 109.5 955.4 109.3 955.2 109.1 954.7 109.1 954.62 109.03999999999999 Z">
    </path>
    <path class="Faeroe Islands" d="M 958.3 108.4 L 958.1 108.2 958.4 108 958.3 108.4 Z">
    </path>
    <path class="Faeroe Islands" d="M 955.9 108.9 L 955.5 108.7 955.2 108.4 955.1 108.1 955.2 108 955.6 107.9 955.9 107.9 956.5 108.3 956.4 108.5 956.5 108.7 957.1 108.9 957.1 109.1 956.7 109.4 955.9 108.9 Z">
    </path>
    <path class="Faeroe Islands" d="M 958.1 108.3 L 957.8 108.7 957.5 108.5 957.2 108.5 957.4 108.2 957.3 107.8 957.4 107.7 957.6 108.1 958.1 108.3 Z">
    </path>
    <path class="Faeroe Islands" d="M 957.2 108.3 L 957 108.3 956.8 107.9 956.9 107.6 957.1 108 957.2 108.3 Z">
    </path>
</svg>