<svg baseprofile="tiny" fill="#ececec" height="857" stroke="black" stroke-linecap="round" stroke-linejoin="round" stroke-width=".2" version="1.2" viewbox="0 0 2000 857" width="2000" xmlns="http://www.w3.org/2000/svg">
    <path d="M 1081.5 207.6 l 1.5 2.5 1.7 1.8-1.7 2.4-2.4-1.4-3.5 0.1-4.5-1.1-2.3 0.1-1 1.4-2-1.5-0.8 2.6 2.7 3 1.3 1.9 2.5 2.4 2.1 1.4 2.1 2.7 4.8 2.4-0.5 1-5-2.3-3.2-2.3-4.8-1.9-4.7-4.6 1-0.5-2.5-2.7-0.3-2.1-3.3-1-1.4 2.7-1.6-2.1 0-2.2 0.1-0.1 3.6 0.2 0.8-1 1.8 1 2 0.1-0.1-1.7 1.7-0.7 0.3-2.5 3.9-1.7 1.6 0.8 4 2.7 4.3 1.2 1.8-1z" id="HR" name="Croatia">
    </path>
</svg>