<svg fill="#ececec" height="857" width="2000" xmlns="http://www.w3.org/2000/svg">
    <path d="M 1802.5 411.1 L 1802.4 411.2 1802.2 411.1 1802.1 410.9 1802.6 410.7 1802.8 410.9 1802.5 411.1 Z">
    </path>
    <path d="M 1804 406 L 1803.8 406 1803.5 405.4 1803.6 405.1 1803.9 405.1 1803.9 405.4 1804.1 405.6 1804 406 Z">
    </path>
    <path d="M 1804.5 404.4 L 1804.3 404.6 1804.4 404.9 1804 404.9 1804 404.2 1804.1 404 1804.5 403.8 1804.4 404.3 1804.5 404.4 Z">
    </path>
    <path d="M 1802.6 396.9 L 1802.3 396.9 1802.2 396.7 1802.6 396.7 1802.6 396.9 Z">
    </path>
    <path d="M 1800.7 385.9 L 1800.6 385.7 1800.6 385.2 1800.9 385.1 1801.1 385.4 1800.7 385.9 Z">
    </path>
    <path d="M 1799.5 381.6 L 1799.1 381.5 1799.1 381.2 1799.3 381.1 1799.5 381.3 1799.5 381.6 Z">
    </path>
</svg>