<svg fill="#ececec" height="857" width="2000" xmlns="http://www.w3.org/2000/svg">
    <path d="M 1016.5 177.1 l -2.8-1.5-3.1-2.7-4.5 1.3-3.6-0.5 2.5-1.7 4-9 6.5-2.6 4 0.2 0.9 2.1-0.9 5.6-1.2 2.3-2.9 0 1.1 6.5z">
    </path>


    <path d="M 602 424.6 l -0.2 0-0.1-0.5 0.1-0.3-0.1-0.3-0.4-0.1-0.3-0.3 0.1-0.3 1.2 0.6-0.1 0.2 0 0.4-0.2 0.2 0 0.4z">
    </path>
    <path d="M 634.3 389.6 l -0.2 0.1 0-0.2 0.1-0.1 0.1 0.2z">
    </path>
    <path d="M 632.8 388.7 l -0.1 0 0.1-0.2 0.1 0.1-0.1 0.1z">
    </path>
</svg>