<svg fill="#ececec" height="857" width="2000" xmlns="http://www.w3.org/2000/svg">
    <path d="M 1352.7 230.7 l 1.7 0.6-3 4.1 4.6 2.4 3.2-1.6 7.2 3.4-5.3 4.6-4.1-0.6-2.1 0.1-1.3-1.7 0.2-3-6.5 1.5-0.5 4.1-1.5 3.5-4.4-0.3-0.6 2.8 4.2 1.5 2.4 4.8-1.3 6.5-4.3-1.4-3 0-0.8-3.9-7.7-2.8-6.3-3.1-4.2-3-7.1-4.4-4.3-6.6-2.1-1.2-5.5 0.3-2.3-1.3-1.9-5-7.9-3.4-3.4 3.7-3.8 2.2 1.7 3.2-5.9 0.1-6.2-23.4 12-3.7 1.1 0.5 9.2 4.5 4.8 2.4 6.6 5.7 5.7-0.9 8.6-0.5 7.6 4.6 1.5 6.4 2.6 0.1 2.5 5.2 6.7 0.2 2.3 3 2 0 0.9-4.6 5.4-4.4 2.6-1.2z" id="UZ" name="Uzbekistan">
    </path>
</svg>